<svg width="360" height="129" viewBox="0 0 360 129" fill="none" xmlns="http://www.w3.org/2000/svg"><path d="M350.58 107.68C351.27 106.99 352.18 106.77 353.09 106.77C354.14 106.77 354.92 107.1 355.51 107.68C356.36 108.5 356.62 109.8 356.68 111.37H349.43C349.5 109.8 349.76 108.46 350.58 107.68ZM359.98 111.79C359.98 108.89 359.26 106.93 357.76 105.65C356.62 104.67 355.02 104.08 353.06 104.08C351 104.08 349.44 104.67 348.33 105.65C346.86 106.89 346.11 108.85 346.11 111.79V113.81C346.11 116.65 346.8 118.67 348.3 119.95C349.54 120.99 351.24 121.48 353.2 121.48C354.9 121.48 356.33 121.09 357.48 120.3C358.56 119.58 359.37 118.54 359.9 117.1L356.96 116.15C356.63 116.93 356.18 117.55 355.59 118.01C354.94 118.5 354.22 118.73 353.24 118.73C352.16 118.73 351.31 118.44 350.69 117.85C349.74 116.97 349.45 115.56 349.45 113.74H359.99V111.79H359.98ZM341.21 121.23H343.27V118.49H342.13C341.05 118.49 340.63 118.07 340.63 116.96V97.6001H337.3V117.35C337.29 119.92 338.5 121.23 341.21 121.23ZM325.54 121.49C327.92 121.49 329.62 120.87 330.73 119.63C331.74 118.52 332.23 116.92 332.23 114.83V104.35H328.9V114.89C328.9 116.13 328.64 117.14 328.08 117.79C327.53 118.44 326.71 118.8 325.53 118.8C324.35 118.8 323.51 118.44 322.95 117.79C322.4 117.14 322.13 116.13 322.13 114.89V104.35H318.8V114.83C318.8 116.92 319.29 118.52 320.3 119.63C321.43 120.87 323.13 121.49 325.54 121.49ZM312.75 105.85C311.8 104.74 310.33 104.09 308.54 104.09C306.58 104.09 304.88 104.87 303.81 106.05V97.5901H300.48V121.22H303.81V111.1C303.81 109.6 304.23 108.52 304.99 107.84C305.64 107.25 306.56 106.93 307.57 106.93C308.71 106.93 309.5 107.29 310.05 107.91C310.57 108.59 310.8 109.51 310.8 110.68V121.22H314.13V110.29C314.12 108.4 313.63 106.93 312.75 105.85ZM289.77 121.49C291.53 121.49 293.03 121.03 294.18 120.18C295.19 119.46 295.94 118.42 296.4 117.01L293.53 116.03C293.17 116.88 292.71 117.53 292.13 117.99C291.51 118.48 290.76 118.71 289.78 118.71C288.7 118.71 287.85 118.42 287.23 117.83C286.32 116.95 286.09 115.48 286.09 113.62V111.96C286.09 110.1 286.32 108.66 287.23 107.78C287.85 107.16 288.7 106.87 289.78 106.87C290.76 106.87 291.51 107.13 292.13 107.59C292.72 108.05 293.18 108.7 293.53 109.55L296.4 108.57C295.94 107.2 295.22 106.15 294.18 105.4C293.04 104.52 291.54 104.09 289.77 104.09C287.81 104.09 286.08 104.61 284.84 105.69C283.4 106.96 282.75 108.99 282.75 111.79V113.81C282.75 116.62 283.4 118.61 284.84 119.88C286.08 120.93 287.77 121.49 289.77 121.49ZM272.92 121.49C276.74 121.49 279.32 119.7 279.32 116.53V116.43C279.32 113.46 277.72 112.29 274.55 111.5L272.85 111.01C270.96 110.52 269.81 110.1 269.81 108.82V108.75C269.81 107.48 270.82 106.69 272.75 106.69C273.73 106.69 274.58 106.89 275.3 107.28C275.95 107.57 276.44 108.03 276.87 108.55L279.19 106.95C278.57 105.94 277.72 105.25 276.61 104.8C275.5 104.31 274.26 104.08 272.92 104.08C269.13 104.08 266.62 105.75 266.62 108.78V108.88C266.62 111.56 268.35 112.8 271.48 113.58L273.18 114.07C275.33 114.63 276.15 115.11 276.15 116.52V116.55C276.15 117.99 274.94 118.87 273.02 118.87C272.17 118.87 271.36 118.71 270.67 118.38C269.89 117.99 269.23 117.4 268.68 116.62L266.26 118.19C266.85 119.27 267.8 120.12 269 120.67C270.05 121.19 271.36 121.49 272.92 121.49ZM261.4 105.85C260.45 104.74 258.98 104.09 257.19 104.09C255.23 104.09 253.53 104.87 252.46 106.05V97.5901H249.13V121.22H252.46V111.1C252.46 109.6 252.89 108.52 253.64 107.84C254.29 107.25 255.21 106.93 256.22 106.93C257.36 106.93 258.15 107.29 258.7 107.91C259.22 108.59 259.45 109.51 259.45 110.68V121.22H262.78V110.29C262.77 108.4 262.28 106.93 261.4 105.85ZM238.58 121.49C240.34 121.49 241.84 121.03 242.99 120.18C244 119.46 244.75 118.42 245.21 117.01L242.34 116.03C241.98 116.88 241.52 117.53 240.94 117.99C240.32 118.48 239.57 118.71 238.59 118.71C237.51 118.71 236.66 118.42 236.04 117.83C235.13 116.95 234.9 115.48 234.9 113.62V111.96C234.9 110.1 235.13 108.66 236.04 107.78C236.66 107.16 237.51 106.87 238.59 106.87C239.57 106.87 240.32 107.13 240.94 107.59C241.53 108.05 241.98 108.7 242.34 109.55L245.21 108.57C244.75 107.2 244.03 106.15 242.99 105.4C241.85 104.52 240.35 104.09 238.58 104.09C236.62 104.09 234.89 104.61 233.65 105.69C232.21 106.96 231.56 108.99 231.56 111.79V113.81C231.56 116.62 232.21 118.61 233.65 119.88C234.89 120.93 236.59 121.49 238.58 121.49ZM221.12 118.78C219.95 118.78 219.03 118.49 218.44 117.9C217.56 117.02 217.23 115.55 217.23 113.66V111.96C217.23 110.07 217.52 108.6 218.44 107.72C219.09 107.1 219.97 106.81 221.12 106.81C222.3 106.81 223.21 107.14 223.8 107.72C224.68 108.57 225.01 110.04 225.01 111.96V113.66C225.01 115.55 224.68 117.02 223.8 117.9C223.21 118.48 222.29 118.78 221.12 118.78ZM221.12 121.49C223.14 121.49 224.91 121 226.15 119.92C227.59 118.68 228.34 116.69 228.34 113.82V111.8C228.34 108.99 227.62 106.94 226.15 105.66C224.91 104.62 223.15 104.09 221.12 104.09C219.1 104.09 217.33 104.61 216.09 105.66C214.65 106.9 213.9 108.92 213.9 111.8V113.82C213.9 116.63 214.62 118.65 216.09 119.92C217.33 121 219.09 121.49 221.12 121.49ZM206.27 98.8301V108.39H197.88V98.8301H194.45V121.22H197.88V111.39H206.27V121.22H209.73V98.8301H206.27ZM180.35 105.85C179.4 104.74 177.93 104.09 176.14 104.09C174.05 104.09 172.22 105 171.18 106.34V104.35H168.08V121.23H171.41V111.11C171.41 109.61 171.83 108.53 172.58 107.85C173.23 107.26 174.15 106.94 175.16 106.94C176.3 106.94 177.09 107.3 177.64 107.92C178.16 108.6 178.39 109.52 178.39 110.69V121.23H181.72V110.3C181.72 108.4 181.23 106.93 180.35 105.85ZM155.67 118.32C154.56 118.32 153.68 117.96 153.09 117.28C152.44 116.53 152.08 115.32 152.08 113.59V111.66C152.08 109.9 152.44 108.72 153.09 107.97C153.68 107.25 154.56 106.93 155.67 106.93C157.92 106.93 159.62 108.37 159.62 110.94V114.3C159.62 116.88 157.92 118.32 155.67 118.32ZM159.82 104.35V106.44C158.77 105.04 156.95 104.09 154.76 104.09C153 104.09 151.46 104.71 150.42 105.85C149.31 107.09 148.76 109.02 148.76 111.2V114.01C148.76 116.23 149.31 118.16 150.42 119.4C151.46 120.54 153 121.13 154.76 121.13C156.91 121.13 158.71 120.25 159.75 118.88V121.78C159.75 124.46 158.28 125.5 156.09 125.5C154.46 125.5 152.63 124.91 151.1 124L149.83 126.41C151.56 127.52 153.88 128.24 156.29 128.24C160.17 128.24 162.95 126.41 162.95 121.88V104.35H159.82V104.35ZM140.72 121.23H144.05V104.35H140.72V121.23ZM140.69 101.22H144.09V97.6001H140.69V101.22ZM130.24 121.49C134.06 121.49 136.64 119.7 136.64 116.53V116.43C136.64 113.46 135.04 112.29 131.87 111.5L130.17 111.01C128.28 110.52 127.13 110.1 127.13 108.82V108.75C127.13 107.48 128.14 106.69 130.07 106.69C131.05 106.69 131.9 106.89 132.62 107.28C133.27 107.57 133.76 108.03 134.19 108.55L136.51 106.95C135.89 105.94 135.04 105.25 133.93 104.8C132.82 104.31 131.58 104.08 130.24 104.08C126.45 104.08 123.94 105.75 123.94 108.78V108.88C123.94 111.56 125.67 112.8 128.8 113.58L130.5 114.07C132.65 114.63 133.47 115.11 133.47 116.52V116.55C133.47 117.99 132.26 118.87 130.34 118.87C129.49 118.87 128.68 118.71 127.99 118.38C127.21 117.99 126.55 117.4 126 116.62L123.58 118.19C124.17 119.27 125.11 120.12 126.32 120.67C127.37 121.19 128.67 121.49 130.24 121.49ZM110.88 107.68C111.57 106.99 112.48 106.77 113.39 106.77C114.43 106.77 115.22 107.1 115.81 107.68C116.66 108.5 116.92 109.8 116.98 111.37H109.73C109.81 109.8 110.07 108.46 110.88 107.68ZM120.28 111.79C120.28 108.89 119.56 106.93 118.06 105.65C116.92 104.67 115.32 104.08 113.36 104.08C111.3 104.08 109.74 104.67 108.63 105.65C107.16 106.89 106.41 108.85 106.41 111.79V113.81C106.41 116.65 107.09 118.67 108.6 119.95C109.84 120.99 111.54 121.48 113.5 121.48C115.2 121.48 116.63 121.09 117.78 120.3C118.86 119.58 119.67 118.54 120.2 117.1L117.26 116.15C116.93 116.93 116.48 117.55 115.89 118.01C115.24 118.5 114.52 118.73 113.54 118.73C112.46 118.73 111.61 118.44 110.99 117.85C110.04 116.97 109.75 115.56 109.75 113.74H120.29V111.79H120.28ZM94.53 118.68C93.42 118.68 92.54 118.32 91.95 117.63C91.3 116.88 90.94 115.67 90.94 113.94V111.65C90.94 109.89 91.3 108.71 91.95 107.96C92.54 107.24 93.42 106.92 94.53 106.92C96.78 106.92 98.48 108.36 98.48 110.93V114.65C98.48 117.24 96.78 118.68 94.53 118.68ZM98.48 97.5901V106.21C97.4 104.94 95.67 104.09 93.62 104.09C91.86 104.09 90.32 104.71 89.28 105.85C88.17 107.09 87.62 109.02 87.62 111.2V114.37C87.62 116.59 88.18 118.52 89.28 119.76C90.32 120.9 91.86 121.49 93.62 121.49C95.81 121.49 97.63 120.58 98.68 119.14V121.23H101.81V97.6001H98.48V97.5901ZM76.12 118.91C74.1 118.91 73.05 117.77 73.05 116.23V116C73.05 115.15 73.28 114.56 73.7 114.17C74.22 113.75 74.97 113.55 76.08 113.55H79.87V115.7C79.87 117.67 78.21 118.91 76.12 118.91ZM81.5 105.62C80.52 104.71 79.08 104.08 76.83 104.08C73.83 104.08 71.48 105.45 70.37 107.74L73.31 108.72C73.99 107.54 75.17 106.79 76.7 106.79C77.71 106.79 78.46 107.08 78.99 107.61C79.51 108.17 79.87 108.95 79.87 110.32V111.2H75.53C73.57 111.2 72.1 111.62 71.09 112.54C70.27 113.29 69.72 114.4 69.72 116.03V116.32C69.72 119.32 71.74 121.48 75.3 121.48C77.39 121.48 79.09 120.7 80.1 119.39V121.22H83.2V110.19C83.2 108.3 82.65 106.7 81.5 105.62ZM61.89 121.23H65.22V104.35H61.89V121.23ZM61.85 101.22H65.24V97.6001H61.85V101.22ZM49.38 118.68C48.27 118.68 47.39 118.32 46.8 117.63C46.15 116.88 45.79 115.67 45.79 113.94V111.65C45.79 109.89 46.15 108.71 46.8 107.96C47.39 107.24 48.27 106.92 49.38 106.92C51.63 106.92 53.33 108.36 53.33 110.93V114.65C53.33 117.24 51.64 118.68 49.38 118.68ZM53.33 97.5901V106.21C52.25 104.94 50.52 104.09 48.47 104.09C46.71 104.09 45.17 104.71 44.13 105.85C43.02 107.09 42.46 109.02 42.46 111.2V114.37C42.46 116.59 43.02 118.52 44.13 119.76C45.18 120.9 46.71 121.49 48.47 121.49C50.66 121.49 52.49 120.58 53.53 119.14V121.23H56.66V97.6001H53.33V97.5901ZM29.54 107.68C30.22 106.99 31.14 106.77 32.05 106.77C33.09 106.77 33.88 107.1 34.47 107.68C35.32 108.5 35.58 109.8 35.64 111.37H28.39C28.46 109.8 28.72 108.46 29.54 107.68ZM38.94 111.79C38.94 108.89 38.22 106.93 36.72 105.65C35.58 104.67 33.98 104.08 32.02 104.08C29.96 104.08 28.4 104.67 27.29 105.65C25.82 106.89 25.07 108.85 25.07 111.79V113.81C25.07 116.65 25.75 118.67 27.26 119.95C28.5 120.99 30.2 121.48 32.16 121.48C33.86 121.48 35.29 121.09 36.44 120.3C37.52 119.58 38.33 118.54 38.86 117.1L35.92 116.15C35.59 116.93 35.14 117.55 34.55 118.01C33.9 118.5 33.18 118.73 32.2 118.73C31.12 118.73 30.27 118.44 29.65 117.85C28.7 116.97 28.41 115.56 28.41 113.74H38.95V111.79H38.94ZM0 121.23H3.23V112.77C3.23 110.29 3.2 106.96 3.1 103.96H3.23C3.85 106.15 4.63 108.56 5.35 110.72L8.97 121.23H11.94L15.5 110.78C16.28 108.49 17 106.08 17.65 103.79H17.78C17.68 106.83 17.62 110.48 17.62 112.8V121.22H20.85V98.8301H16.44L13.37 108.04C12.36 111.24 11.31 114.67 10.56 117.05H10.46C9.74 114.77 8.63 111.24 7.52 107.98L4.39 98.8401H0V121.23Z" fill="#0B0B0A"/><path d="M98.67 75.7499C95.18 75.7499 92.34 72.9099 92.34 69.4199V47.9299C92.34 36.9099 85.78 29.7899 75.62 29.7899C65.46 29.7899 58.9 36.9099 58.9 47.9299V69.4199C58.9 72.9099 56.06 75.7499 52.57 75.7499H52.44C48.93 75.7499 46.08 72.9099 46.08 69.4199V47.9299C46.08 36.7399 39.67 29.7899 29.36 29.7899C18.74 29.7899 12.64 36.3999 12.64 47.9299V69.4199C12.64 72.9099 9.8 75.7499 6.31 75.7499C2.82 75.7499 0 72.9099 0 69.4199V47.9299C0 28.9299 11.26 17.1299 29.38 17.1299C38.34 17.1299 48.97 20.7899 52.5 28.9599L52.58 29.1399L52.66 28.9599C56.48 20.2199 67.43 17.1299 75.64 17.1299C94.04 17.1299 105.02 28.6399 105.02 47.9299V69.4199C105 72.9099 102.16 75.7499 98.67 75.7499Z" fill="#0B0B0A"/><path d="M140.07 75.97C123.82 75.97 110.61 62.75 110.61 46.51C110.61 30.27 123.83 17.09 140.07 17.09C146.84 17.09 153.63 19.88 156.99 23.46V6.42C156.99 2.88 159.73 0 163.26 0C166.79 0 169.53 2.88 169.53 6.42V45.34C169.54 68.87 151.84 75.97 140.07 75.97ZM140.07 29.4C130.63 29.4 122.96 37.08 122.96 46.51C122.96 55.94 130.64 63.62 140.07 63.62C149.51 63.62 157.18 55.94 157.18 46.51C157.18 37.08 149.51 29.4 140.07 29.4Z" fill="#0B0B0A"/><path d="M234.44 75.7801C230.93 75.7801 228.08 72.9301 228.08 69.4201V47.8601C228.08 36.7301 221.71 29.8201 211.46 29.8201C201.05 29.8201 194.84 36.5601 194.84 47.8601V69.4201C194.84 72.9301 191.99 75.7801 188.48 75.7801C184.97 75.7801 182.12 72.9301 182.12 69.4201V6.42006C182.12 2.91006 184.97 0.0600586 188.48 0.0600586C191.99 0.0600586 194.84 2.91006 194.84 6.42006V23.6301L194.94 23.4901C197.24 20.4001 204.43 17.1001 211.46 17.1001C225.59 17.1001 240.8 26.7201 240.8 47.8501V69.4101C240.79 72.9201 237.94 75.7801 234.44 75.7801Z" fill="#0B0B0A"/></svg>